<svg fill="none" height="57" viewBox="0 0 61 57" width="61" xmlns="http://www.w3.org/2000/svg"><path clip-rule="evenodd" d="m22.2892 5.98332c.3748-.38242.3948-.60474.3948-.66546 0-.06071-.02-.28303-.3948-.66546-.3836-.39142-1.0372-.83585-2.0025-1.25245-1.9237-.8303-4.7213-1.39329-7.917-1.39329-3.19562 0-5.99326.56299-7.91697 1.39329-.96522.4166-1.61887.86103-2.00245 1.25245-.25165.2568-.34335.4414-.37644.55336h.0173v.27468c.04413.11378.14219.2815.35914.50288.38358.39143 1.03723.83586 2.00245 1.25246.1142.04929.23148.09764.35175.14499 1.44402.74778 4.24464 1.25483 7.46282 1.25483 2.5859 0 4.9022-.32738 6.4618-.84397.5666-.1665 1.0882-.35321 1.5576-.55585.9653-.4166 1.6189-.86103 2.0025-1.25246zm-1.9902 3.40495.0674.79163v-.81629c.8921-.3288 1.6742-.71162 2.319-1.13671v4.5965c-.8157.1849-1.5912.3996-2.319.6408v-1.8852c.0007-.0196.0011-.0391.0011-.0587s-.0004-.0392-.0011-.0587v-.0911c-2.1521.7932-4.9449 1.2722-7.9968 1.2722-3.03031 0-5.80514-.4722-7.95104-1.2554v13.2324c-.03459.6336.24898 1.1896.69758 1.6448.44774.4544 1.08041.8325 1.81359 1.1355 1.46879.6071 3.44137.9538 5.46277.9538.4997 0 .9984-.0216 1.4883-.0636v3.2327c-.4923.03-.991.0455-1.4925.0455-2.86919 0-5.60306-.4959-7.56001-1.3047-.98125-.4055-1.71063-.8665-2.17034-1.333-.44994-.4567-.5909-.8597-.56875-1.2157l.00194-.0311v-19.4327c.64866.42257 1.43347.80283 2.32742 1.1291v.26274l.02169-.25484c2.03164.7381 4.62369 1.198 7.46115 1.2438.1551.0026.3112.004.4682.004.1562 0 .3115-.0013.4657-.004 2.8384-.0455 5.4315-.5055 7.4637-1.24373zm-6.4182 24.14473c-.4949.0279-.9935.042-1.4925.042-3.06645 0-6.07231-.5252-8.32644-1.4568-1.1243-.4646-2.1183-1.0536-2.83322-1.7791-.717073-.7277-1.1993801-1.6469-1.1441615-2.7147v-21.89895c-.0236234-.13452-.0356504-.27045-.0356504-.40759 0-2.93697 5.5162619-5.31786 12.3208719-5.31786 6.7179 0 12.18 2.32054 12.3183 5.20576h.0041v7.23634c1.6772-.2605 3.4812-.4022 5.3601-.4022 1.8764 0 3.678.1413 5.3534.4012v-7.23534h.0041c.1382-2.88522 5.6004-5.20576 12.3182-5.20576 6.8047 0 12.3209 2.38089 12.3209 5.31786 0 .13714-.012.27307-.0356.40759v21.89895c.0552 1.0678-.4271 1.987-1.1442 2.7147-.7149.7255-1.7089 1.3145-2.8332 1.7791-2.2541.9316-5.26 1.4568-8.3264 1.4568-.5012 0-1.002-.0143-1.4991-.0424v14.9378c.0718 1.3254-.5286 2.4778-1.4561 3.4094-.9255.9296-2.2256 1.6961-3.7166 2.3069-2.9878 1.2238-6.9737 1.9159-10.9921 1.9159-4.0804 0-8.0668-.6997-11.0403-1.9286-1.484-.6133-2.7724-1.3816-3.688-2.3108-.9176-.9311-1.5072-2.0785-1.4364-3.3926zm32.3295-2.0105c.4944.0303.9954.0459 1.4991.0459 2.8691 0 5.603-.4959 7.56-1.3047.9812-.4055 1.7106-.8665 2.1703-1.333.4499-.4567.5909-.8597.5688-1.2157l-.002-.0311v-19.4327c-.6486.42257-1.4334.80283-2.3274 1.1291v.26274l-.0217-.25484c-2.0316.7381-4.6237 1.198-7.4611 1.2438-.1551.0026-.3112.004-.4683.004-.1562 0-.3114-.0013-.4657-.004-2.8384-.0455-5.4314-.5055-7.4637-1.24373l-.0674.79163v-.81629c-.8921-.3288-1.6741-.71162-2.3189-1.13671v4.5949c.8156.1848 1.5911.3992 2.3189.6402v-1.883c-.0007-.0196-.001-.0391-.001-.0587s.0003-.0392.001-.0587v-.0911c2.1522.7932 4.9449 1.2722 7.9968 1.2722 3.0304 0 5.8052-.4722 7.9511-1.2554v13.2324c.0346.6336-.249 1.1896-.6976 1.6448-.4477.4544-1.0804.8325-1.8136 1.1355-1.4688.6071-3.4414.9538-5.4627.9538-.502 0-1.0029-.0218-1.4949-.0641zm-8.4018-25.53918c-.3748-.38242-.3948-.60474-.3948-.66546 0-.06071.02-.28303.3948-.66546.3835-.39142 1.0372-.83585 2.0024-1.25245 1.9237-.8303 4.7214-1.39329 7.917-1.39329 3.1957 0 5.9933.56299 7.917 1.39329.9652.4166 1.6189.86103 2.0025 1.25245.2516.2568.3433.4414.3764.55336h-.0173v.27468c-.0441.11378-.1422.2815-.3591.50288-.3836.39143-1.0373.83586-2.0025 1.25246-.4474.19311-.9421.37175-1.478.53222-1.5598.53022-3.907.8676-6.5321.8676-3.1963 0-5.9806-.50015-7.4331-1.23955-.134-.05221-.2643-.10566-.3908-.16027-.9652-.4166-1.6189-.86103-2.0024-1.25246zm6.3906 13.19138c0 .3279-.142.7941-.712 1.3893-.5797.6054-1.5142 1.242-2.8233 1.8202-1.1916.5263-2.6197.9716-4.2237 1.3003l-.0212-.007c-1.8245.3577-4.0039.5656-6.3449.5656-2.3572 0-4.5505-.2108-6.3826-.573l-.0373.0123c-1.5999-.3285-3.0245-.773-4.2135-1.2982-1.3091-.5782-2.2436-1.2148-2.8233-1.8202-.5701-.5952-.7121-1.0614-.7121-1.3893 0-.3278.142-.794.7121-1.3893.5797-.6053 1.5142-1.2419 2.8233-1.8202 2.6128-1.154 6.3629-1.9186 10.6116-1.9186 4.2486 0 7.9987.7646 10.6116 1.9186 1.3091.5783 2.2436 1.2149 2.8233 1.8202.57.5953.712 1.0615.712 1.3893zm-24.8537 6.7813v-1.4387c-1.3859-.5422-2.5593-1.1881-3.458-1.91v25.9234l-.0019.0312c-.0375.6017.2104 1.2326.861 1.8929.6604.6701 1.6842 1.3105 3.0251 1.8647 2.6764 1.106 6.3908 1.7764 10.2739 1.7764 3.8208 0 7.5374-.6627 10.2315-1.7662 1.3499-.5529 2.3856-1.1932 3.0551-1.8657.6598-.6627.9114-1.2962.8735-1.9017l-.0019-.0314v-25.913c-.9006.7206-2.0751 1.365-3.4615 1.9059v1.1525l-.0818-1.085c-2.6128 1.1541-6.3629 1.9187-10.6115 1.9187-4.2487 0-7.9988-.7646-10.6116-1.9187zm10.7035 2.5607c4.1007 0 7.8446-.675 10.6933-1.787v.7461l.0001.0205-.0001.0205v17.5541c.0471.8573-.3404 1.6065-.9488 2.2177-.6073.61-1.4639 1.1161-2.4524 1.521-1.9802.8111-4.6266 1.2713-7.2972 1.2713-2.712 0-5.3586-.4652-7.3292-1.2797-.9837-.4065-1.8325-.9138-2.4332-1.5234-.6019-.6108-.9824-1.3568-.936-2.2068v-18.3453c2.8499 1.1144 6.5978 1.791 10.7035 1.791z" fill="#fff" fill-rule="evenodd"/></svg>