<svg fill="none" height="60" viewBox="0 0 44 60" width="44" xmlns="http://www.w3.org/2000/svg"><path clip-rule="evenodd" d="m39.8572 11.8754c.7106-.7504 1.0135-1.418 1.0832-1.9901v-.50668h.003c-.0639-.57773-.3651-1.25389-1.0862-2.01546-.8345-.88134-2.1437-1.77335-3.9263-2.56958-3.56-1.59017-8.6298-2.62924-14.345-2.62924-5.7151 0-10.7849 1.03907-14.34491 2.62924-1.78257.79623-3.09176 1.68824-3.9263 2.56958-.74545.78723-1.04217 1.48321-1.09186 2.07354v.36516c.04969.59034.34641 1.28634 1.09186 2.07354.83454.8813 2.14373 1.7733 3.9263 2.5696 1.2237.5466 2.6258 1.0281 4.17121 1.4246h1.0519c2.484-.9007 5.6561-1.4409 9.112-1.4409s6.628.5402 9.112 1.4409h1.0716c1.5454-.3965 2.9475-.878 4.1712-1.4246 1.7826-.7963 3.0918-1.6883 3.9263-2.5696zm-31.90507 5.1903c.57263.5037 1.44803 1.0435 2.65507 1.5464 2.6879 1.12 6.568 1.8694 10.9783 1.8694 4.4104 0 8.2904-.7494 10.9783-1.8694 1.2066-.5027 2.0818-1.0423 2.6545-1.5459 2.3897-.8738 4.3511-1.9727 5.7221-3.2241v36.2117l.0022.0338c.0573.9154-.3294 1.841-1.256 2.7718-.9372.9413-2.3692 1.8216-4.2082 2.5749-3.6718 1.5039-8.7189 2.4014-13.8968 2.4014-5.2619 0-10.3064-.9078-13.95478-2.4156-1.82718-.7551-3.24315-1.6357-4.16788-2.5741-.91421-.9278-1.29477-1.8496-1.23819-2.7588l.00208-.0336v-36.2193c1.21542 1.1119 2.89675 2.1036 4.93046 2.9244v4.0073c-.00062.0244-.00092.0488-.00092.0732s.0003.0488.00092.0732v23.6211c-.06258 1.146.45037 2.1518 1.26182 2.9752.8099.8219 1.95429 1.5058 3.28049 2.0539 2.6569 1.0981 6.2251 1.7253 9.8814 1.7253 3.6006 0 7.1685-.6204 9.8383-1.714 1.3326-.5459 2.4875-1.2283 3.3063-2.0507.8203-.8239 1.3427-1.8341 1.2792-2.9899v-4.8365c-2.9486 2.0317-8.3013 3.3898-14.4153 3.3898-6.1234 0-11.4832-1.3623-14.42891-3.3992v-3.6148c0 .1307.0534.4729.60572 1.017.5608.5524 1.49566 1.1607 2.84489 1.7228 2.6879 1.12 6.568 1.8694 10.9783 1.8694 4.4104 0 8.2904-.7494 10.9783-1.8694 1.3493-.5621 2.2841-1.1704 2.8449-1.7228.4262-.4198.5553-.7195.5921-.8945v-6.5987c-2.9486 2.0317-8.3013 3.3898-14.4153 3.3898-6.1234 0-11.4832-1.3623-14.42891-3.3992v-3.6148c0 .1307.0534.4729.60572 1.017.5608.5524 1.49566 1.1606 2.84489 1.7228 2.6879 1.12 6.568 1.8694 10.9783 1.8694 4.4104 0 8.2904-.7494 10.9783-1.8694 1.3493-.5622 2.2841-1.1704 2.8449-1.7228.4262-.4199.5553-.7195.5921-.8945v-6.5982c-2.9486 2.0317-8.3013 3.3898-14.4153 3.3898-6.1234 0-11.4832-1.3623-14.42891-3.3992v-2.7271c.25952.1047.52478.2067.79554.3057zm35.15267 32.9224v-39.99085c.0108-.12539.0163-.2514.0163-.37797 0-5.31258-9.6416-9.61928-21.5352-9.61928-11.8935 0-21.5351187 4.3067-21.5351187 9.61928 0 .08695.0025824.17362.0077151.26002v40.1091c-.0926746 1.6779.6567856 3.1569 1.8588236 4.3767 1.19999 1.2177 2.90137 2.2364 4.88284 3.0553 3.96894 1.6402 9.30674 2.5796 14.78144 2.5796 5.391 0 10.7286-.9291 14.7172-2.5629 1.9912-.8156 3.7083-1.832 4.9216-3.0507 1.2153-1.2207 1.9784-2.7061 1.8844-4.3983z" fill="#fff" fill-rule="evenodd"/></svg>