<svg fill="none" height="60" viewBox="0 0 58 60" width="58" xmlns="http://www.w3.org/2000/svg"><path clip-rule="evenodd" d="m22.041 4.50274-1.1475-4.50249586h-5.7836l-1.1467 4.49924586c-.9265.27749-1.8124.6479-2.647 1.10021l-3.99533-2.37237-4.08962 4.08962 2.38291 4.01305c-.44323.8276-.80614 1.7052-1.07807 2.6222l-4.53609 1.1561v5.7836l4.56932 1.1646c.2735.8951.63387 1.7519 1.07107 2.5606l-2.41461 4.0664 4.08962 4.0897 4.0882-2.4276c.8005.4265 1.6475.778 2.5314 1.0448l.5885 2.3091 1.9381-.4939-.8821-3.4609c-1.516-.309-2.9284-.9029-4.1787-1.7234l-3.77017 2.2387-1.89163-1.8917 2.23015-3.7558c-.83548-1.2547-1.44171-2.6753-1.75888-4.2017l-4.21026-1.0731v-2.6752l4.18844-1.0675c.30717-1.5494.91168-2.9918 1.75159-4.2653l-2.19558-3.69752 1.89164-1.89164 3.6859 2.18866c1.2772-.8525 2.7266-1.46729 4.2849-1.78114l1.0572-4.1478h2.6752l1.0577 4.14993c1.5556.31477 3.0025.92948 4.2776 1.78118l3.6896-2.19083 1.8916 1.89164-2.1989 3.70312c.8377 1.2716 1.4408 2.7114 1.7476 4.2579l1.9918.5076.0367-.1004h4.1673v-.8921l-4.5436-1.158c-.2712-.914-.6328-1.7889-1.0742-2.6142l2.3865-4.01915-4.0896-4.08962-3.9986 2.37433c-.8324-.45143-1.716-.82139-2.6398-1.09892zm2.9972 14.52076c.0482-.3341.0731-.6757.0731-1.0231 0-3.9274-3.1838-7.1112-7.1112-7.1112s-7.1111 3.1838-7.1111 7.1112 3.1837 7.1111 7.1111 7.1111c.3474 0 .689-.0249 1.0231-.073zm-1.9269-1.0231c0 2.8228-2.2884 5.1111-5.1112 5.1111s-5.1111-2.2883-5.1111-5.1111 2.2883-5.1112 5.1111-5.1112 5.1112 2.2884 5.1112 5.1112zm19.226 7.0139-1.2778-5.0139h-6.118l-1.2775 5.0121c-1.1205.3247-2.1886.7719-3.1887 1.326l-4.4517-2.6434-4.3261 4.326 2.6556 4.4723c-.5427.9922-.9807 2.0505-1.2986 3.1598l-5.0544 1.2882v6.118l5.0906 1.2974c.321 1.0856.7571 2.1214 1.2941 3.0932l-2.6896 4.5295 4.3261 4.326 4.5533-2.7037c.962.5238 1.9858.9492 3.0578 1.2623l1.3091 5.1361h6.118l1.3095-5.1379c1.0708-.3133 2.0935-.7386 3.0544-1.262l4.5558 2.7052 4.3261-4.326-2.6923-4.5342c.5355-.97.9706-2.0037 1.291-3.087l5.0964-1.2989v-6.118l-5.0602-1.2897c-.3174-1.107-.7543-2.1632-1.2955-3.1535l2.6584-4.4771-4.3261-4.326-4.4543 2.6449c-.9991-.5537-2.0661-1.0008-3.1854-1.3257zm3.663 14.9862c0 4.4183-3.5817 8.0001-8 8.0001s-8.0001-3.5818-8.0001-8.0001 3.5818-8 8.0001-8 8 3.5817 8 8z" fill="#fff" fill-rule="evenodd"/></svg>