<svg fill="none" height="43" viewBox="0 0 60 43" width="60" xmlns="http://www.w3.org/2000/svg"><path clip-rule="evenodd" d="m12.1114 9.33934c1.955 0 3.5398-1.58483 3.5398-3.53983 0-1.95499-1.5848-3.53983-3.5398-3.53983s-3.53982 1.58484-3.53982 3.53983c0 1.955 1.58482 3.53983 3.53982 3.53983zm0 2.13666c3.135 0 5.6765-2.54146 5.6765-5.67649 0-3.13502-2.5415-5.676463-5.6765-5.676463-3.13502 0-5.67646 2.541443-5.67646 5.676463 0 3.13503 2.54144 5.67649 5.67646 5.67649zm-6.18888 2.7253c.84895-.5306 1.82992-.8119 2.83104-.8119h7.23844c.6999 0 1.39.1375 2.0319.4016-.1517.737-.2347 1.4991-.2418 2.2794l-.0915-.0572c-.5094-.3184-1.098-.4872-1.6986-.4872h-7.23844c-.60067 0-1.18926.1688-1.69862.4872l-3.41197 2.1325c-.93707.5856-1.50633 1.6127-1.50633 2.7177v2.7621c0 .59.4783 1.0683 1.06831 1.0683h16.19895c.3532 0 .6931-.0571 1.0109-.1626-.0726.0424-.1445.0859-.2159.1305l-3.47 2.1688h-13.52395c-1.77005 0-3.20495-1.4349-3.20495-3.205v-2.7621c0-1.8417.948771-3.5535 2.51055-4.5296zm29.33258 6.8803v.0006c.9926-1.1511 1.6419-2.6067 1.7887-4.2076-.0002.0002-.0004.0004-.0006.0005.021-.2288.0317-.4607.0317-.6951 0-4.1478-3.3625-7.51026-7.5103-7.51026s-7.5103 3.36246-7.5103 7.51026c0 4.1479 3.3625 7.5103 7.5103 7.5103 2.2747 0 4.3132-1.0112 5.6905-2.6087zm21.5405 5.7489h-13.6987l-3.47-2.1688c-.4026-.2516-.8237-.4682-1.2587-.6484.036-.0404.0717-.081.1071-.1219.5652.4994 1.3079.8024 2.1213.8024h16.199c.59 0 1.0683-.4783 1.0683-1.0683v-2.7621c0-1.105-.5692-2.1321-1.5063-2.7177l-3.412-2.1325c-.5093-.3184-1.0979-.4872-1.6986-.4872h-7.2384c-.6007 0-1.1892.1688-1.6986.4872l-.9692.6057c.0053-.1457.008-.292.008-.439 0-.6754-.0568-1.3375-.166-1.9819.8478-.5284 1.8268-.8086 2.8258-.8086h7.2384c1.0011 0 1.9821.2813 2.831.8119l3.412 2.1325c1.5618.9761 2.5106 2.6879 2.5106 4.5296v2.7621c0 1.77-1.4349 3.205-3.205 3.205zm-9.4291-17.49116c1.955 0 3.5398-1.58483 3.5398-3.53983 0-1.95499-1.5848-3.53983-3.5398-3.53983s-3.5399 1.58484-3.5399 3.53983c0 1.955 1.5849 3.53983 3.5399 3.53983zm0 2.13666c3.135 0 5.6764-2.54146 5.6764-5.67649 0-3.13502-2.5414-5.676463-5.6764-5.676463-3.1351 0-5.6765 2.541443-5.6765 5.676463 0 3.13503 2.5414 5.67649 5.6765 5.67649zm-24.3505 16.4646c.3179-.1987.6852-.304 1.06-.304h11.6726c.3749 0 .7422.1053 1.06.304l7.1201 4.45c.5848.3655.9401 1.0065.9401 1.696v7.5064c0 .5523-.4478 1-1 1h-27.9129c-.5523 0-1-.4477-1-1v-7.5064c0-.6895.3552-1.3305.94-1.696z" fill="#fff" fill-rule="evenodd"/></svg>